HIERARCHY
ROOT joint_Root
{
	OFFSET 0.0 0.0 0.0
	CHANNELS 6 Xposition Yposition Zposition Zrotation Xrotation Yrotation 
	JOINT Hips
	{
		OFFSET -17.1583 93.1646 452.98
		CHANNELS 6 Xposition Yposition Zposition Zrotation Xrotation Yrotation 
		JOINT Spine
		{
			OFFSET 15.7357 0.0 0.0
			CHANNELS 6 Xposition Yposition Zposition Zrotation Xrotation Yrotation 
			JOINT Chest
			{
				OFFSET 8.98455 -0.406207 0.0
				CHANNELS 6 Xposition Yposition Zposition Zrotation Xrotation Yrotation 
				JOINT Neck
				{
					OFFSET 16.3773 0.0 0.0
					CHANNELS 6 Xposition Yposition Zposition Zrotation Xrotation Yrotation 
					JOINT Head
					{
						OFFSET 6.45672 0.0 0.0
						CHANNELS 6 Xposition Yposition Zposition Zrotation Xrotation Yrotation 
						End Site
						{
							OFFSET 0.0 0.0 0.0
						}
					}
				}
				JOINT Shoulder_L
				{
					OFFSET 12.9942 -0.242716 4.98039
					CHANNELS 6 Xposition Yposition Zposition Zrotation Xrotation Yrotation 
					JOINT UpperArm_L
					{
						OFFSET 5.34809 0.0 0.0
						CHANNELS 6 Xposition Yposition Zposition Zrotation Xrotation Yrotation 
						JOINT LowerArm_L
						{
							OFFSET 24.3286 1.87007e-05 0.0
							CHANNELS 6 Xposition Yposition Zposition Zrotation Xrotation Yrotation 
							JOINT Hand_L
							{
								OFFSET 22.2916 0.0 0.0
								CHANNELS 6 Xposition Yposition Zposition Zrotation Xrotation Yrotation 
								End Site
								{
									OFFSET 0.0 0.0 0.0
								}
							}
						}
					}
				}
				JOINT Shoulder_R
				{
					OFFSET 12.9945 -0.242716 -4.98039
					CHANNELS 6 Xposition Yposition Zposition Zrotation Xrotation Yrotation 
					JOINT UpperArm_R
					{
						OFFSET -5.34813 0.0 0.0
						CHANNELS 6 Xposition Yposition Zposition Zrotation Xrotation Yrotation 
						JOINT LowerArm_R
						{
							OFFSET -24.3289 0.000322201 0.0
							CHANNELS 6 Xposition Yposition Zposition Zrotation Xrotation Yrotation 
							JOINT Hand_R
							{
								OFFSET -22.2915 -0.000108084 0.0
								CHANNELS 6 Xposition Yposition Zposition Zrotation Xrotation Yrotation 
								End Site
								{
									OFFSET 0.0 0.0 0.0
								}
							}
						}
					}
				}
			}
		}
		JOINT UpperLeg_L
		{
			OFFSET -2.19248 -6.46944 0.0
			CHANNELS 6 Xposition Yposition Zposition Zrotation Xrotation Yrotation 
			JOINT LowerLeg_L
			{
				OFFSET 39.0811 0.0 -1.23785e-05
				CHANNELS 6 Xposition Yposition Zposition Zrotation Xrotation Yrotation 
				JOINT Foot_L
				{
					OFFSET 40.9854 0.0 -1.26872e-05
					CHANNELS 6 Xposition Yposition Zposition Zrotation Xrotation Yrotation 
					JOINT Toes_L
					{
						OFFSET 11.7543 0.0 0.0
						CHANNELS 6 Xposition Yposition Zposition Zrotation Xrotation Yrotation 
						End Site
						{
							OFFSET 0.0 0.0 0.0
						}
					}
				}
			}
		}
		JOINT UpperLeg_R
		{
			OFFSET -2.19251 6.46944 0.0
			CHANNELS 6 Xposition Yposition Zposition Zrotation Xrotation Yrotation 
			JOINT LowerLeg_R
			{
				OFFSET -39.0811 -0.00228153 -0.0401928
				CHANNELS 6 Xposition Yposition Zposition Zrotation Xrotation Yrotation 
				JOINT Foot_R
				{
					OFFSET -40.9854 0.0 0.0
					CHANNELS 6 Xposition Yposition Zposition Zrotation Xrotation Yrotation 
					JOINT Toes_R
					{
						OFFSET -11.7543 0.0 0.0
						CHANNELS 6 Xposition Yposition Zposition Zrotation Xrotation Yrotation 
						End Site
						{
							OFFSET 0.0 0.0 0.0
						}
					}
				}
			}
		}
	}
}
MOTION
Frames:	4
Frame Time:	0.0333333
0.000000 0.000000 0.000000 0.000000 0.000000 -0.000000 177.110000 89.579200 198.469000 99.368700 -52.606500 5.405460 15.735700 0.000005 -0.000001 115.977000 87.745700 -116.036000 8.984550 -0.406207 -0.000000 -3.712990 1.979520 -0.052769 16.377300 -0.000001 -0.000001 2.695120 -7.814040 -0.425752 6.456720 -0.000001 -0.000000 1.177820 -14.603900 -3.043100 12.994200 -0.242716 4.980390 -92.777200 6.811410 -67.754600 5.348090 -0.000007 -0.000001 -62.181800 -13.196400 22.496900 24.328600 0.000019 0.000005 5.145950 27.830700 -10.918000 22.291600 -0.000001 0.000005 46.639400 4.428570 17.765400 12.994500 -0.242716 -4.980390 89.491700 1.487190 -71.127400 -5.348130 -0.000001 -0.000004 -74.742100 12.621000 -8.917010 -24.328900 0.000322 -0.000009 -0.780893 -0.909882 -40.603800 -22.291500 -0.000108 -0.000004 41.375300 5.385310 -2.466350 -2.192480 -6.469440 -0.000000 -172.963000 0.020141 -20.468800 39.081100 -0.000007 -0.000012 -0.007634 0.096727 4.512390 40.985400 -0.000006 -0.000013 -10.581400 14.992600 -68.184900 11.754300 -0.000000 0.000003 0.002408 0.098748 -12.572300 -2.192510 6.469440 -0.000001 -177.363000 -17.735100 -169.776000 -39.081100 -0.002282 -0.040193 -0.001936 0.011547 24.445200 -40.985400 0.000008 0.000006 8.859830 12.273800 -72.660300 -11.754300 -0.000006 -0.000006 -0.004376 -0.055295 -18.822600
0.000000 0.000000 0.000000 0.000000 0.000000 -0.000000 174.626000 89.022700 202.584000 100.427000 -54.861800 5.840600 15.735700 0.000005 -0.000001 119.945000 88.008600 -120.040000 8.984550 -0.406207 -0.000000 -4.314660 1.996490 -0.113468 16.377300 -0.000001 -0.000001 2.424130 -7.620660 -0.028963 6.456720 -0.000001 -0.000000 0.912046 -14.023800 -2.828040 12.994200 -0.242716 4.980390 -92.798100 6.956030 -68.022600 5.348090 -0.000007 -0.000001 -61.469500 -13.066300 22.685000 24.328600 0.000019 0.000005 5.253760 28.248600 -10.994500 22.291600 -0.000001 0.000005 46.745200 4.438690 17.602100 12.994500 -0.242716 -4.980390 89.547100 1.340210 -71.327000 -5.348130 -0.000001 -0.000004 -74.477400 12.621400 -7.961910 -24.328900 0.000322 -0.000009 -0.617240 -0.805052 -37.420300 -22.291500 -0.000108 -0.000004 41.079900 5.383660 -2.414150 -2.192480 -6.469440 -0.000000 -172.726000 2.918150 -24.087200 39.081100 -0.000007 -0.000012 -0.051023 0.203949 14.045600 40.985400 -0.000006 -0.000013 -15.235600 17.474600 -65.214600 11.754300 -0.000000 0.000003 0.002425 0.070550 -13.715400 -2.192510 6.469440 -0.000001 -178.762000 -17.447600 -170.708000 -39.081100 -0.002282 -0.040193 -0.023899 0.048476 29.298700 -40.985400 0.000008 0.000006 9.910200 13.099300 -69.396000 -11.754300 -0.000006 -0.000006 -0.033284 -0.232140 -26.091700
0.000000 0.000000 0.000000 0.000000 0.000000 -0.000000 172.104000 88.654800 206.748000 104.326000 -56.307400 8.671400 15.735700 0.000005 -0.000001 110.378000 88.466100 -111.124000 8.984550 -0.406207 -0.000000 -4.882850 1.149480 -1.444300 16.377300 -0.000001 -0.000001 2.340500 -7.219230 0.395839 6.456720 -0.000001 -0.000000 0.629846 -13.038100 -2.026990 12.994200 -0.242716 4.980390 -92.980300 7.559040 -68.407300 5.348090 -0.000007 -0.000001 -60.854000 -12.208900 22.094000 24.328600 0.000019 0.000005 5.104100 27.866300 -10.818200 22.291600 -0.000001 0.000005 46.649700 4.441080 17.563200 12.994500 -0.242716 -4.980390 89.139600 2.563300 -71.439100 -5.348130 -0.000001 -0.000004 -73.543500 11.824300 -6.968140 -24.328900 0.000322 -0.000009 0.025117 0.041151 -33.441100 -22.291500 -0.000108 -0.000004 40.809500 5.391430 -2.661940 -2.192480 -6.469440 -0.000000 -175.215000 7.100270 -28.268900 39.081100 -0.000007 -0.000012 -0.034024 0.072217 25.226600 40.985400 -0.000006 -0.000013 -11.502800 13.495700 -65.299600 11.754300 -0.000000 0.000003 0.002430 0.096543 -12.661700 -2.192510 6.469440 -0.000001 177.936000 -15.979100 -173.136000 -39.081100 -0.002282 -0.040193 -0.070007 0.101992 35.702800 -40.985400 0.000008 0.000006 11.121500 13.933400 -63.339200 -11.754300 -0.000006 -0.000006 -0.092977 -0.426787 -34.352700
0.000000 0.000000 0.000000 0.000000 0.000000 -0.000000 169.140000 88.356200 210.545000 107.747000 -56.816100 13.030900 15.735700 0.000005 -0.000001 86.553600 88.095600 -87.991700 8.984550 -0.406207 -0.000000 -3.963490 -0.081697 -2.880190 16.377300 -0.000001 -0.000001 1.724440 -7.074710 0.456755 6.456720 -0.000001 -0.000000 0.672706 -12.228800 -0.711494 12.994200 -0.242716 4.980390 -92.979400 7.796360 -69.009300 5.348090 -0.000007 -0.000001 -61.399000 -9.900470 19.061700 24.328600 0.000019 0.000005 4.370550 27.235900 -9.480690 22.291600 -0.000001 0.000005 46.315400 4.447820 17.454100 12.994500 -0.242716 -4.980390 89.016600 2.946970 -71.537600 -5.348130 -0.000001 -0.000004 -74.693000 9.261580 -5.164230 -24.328900 0.000322 -0.000009 0.477075 0.857086 -29.132400 -22.291500 -0.000108 -0.000004 40.549900 5.377060 -2.207630 -2.192480 -6.469440 -0.000000 -178.088000 10.613700 -27.143100 39.081100 -0.000007 -0.000012 0.072370 -0.120434 31.001800 40.985400 -0.000006 -0.000013 -9.064810 10.707200 -66.226400 11.754300 -0.000000 0.000003 0.002164 0.114030 -11.952700 -2.192510 6.469440 -0.000001 176.105000 -13.936000 -175.613000 -39.081100 -0.002282 -0.040193 -0.138969 0.146588 44.136900 -40.985400 0.000008 0.000006 10.835200 13.350300 -52.499300 -11.754300 -0.000006 -0.000006 -0.109414 -0.467335 -36.126500
